<?xml version="1.0" encoding="UTF-8"?>
<!DOCTYPE svg PUBLIC "-//W3C//DTD SVG 1.1//EN" "http://www.w3.org/Graphics/SVG/1.1/DTD/svg11.dtd">
<svg xmlns="http://www.w3.org/2000/svg" version="1.1" width="5209px" height="5210px" style="shape-rendering:geometricPrecision; text-rendering:geometricPrecision; image-rendering:optimizeQuality; fill-rule:evenodd; clip-rule:evenodd" xmlns:xlink="http://www.w3.org/1999/xlink">
<g><path style="opacity:1" fill="#72bd52" d="M 3995.5,1345.5 C 4007.65,1394.94 4018.65,1444.61 4028.5,1494.5C 3909.16,1491.08 3789.83,1487.74 3670.5,1484.5C 3673.83,1351.8 3673,1219.14 3668,1086.5C 3667.67,1081.83 3667.33,1077.17 3667,1072.5C 3660.22,1069.6 3657.38,1071.77 3658.5,1079C 3663.48,1214.15 3663.82,1349.32 3659.5,1484.5C 3485.84,1480.13 3312.18,1476.13 3138.5,1472.5C 3149.65,1454.89 3160.81,1437.22 3172,1419.5C 3276.86,1262.15 3387.69,1109.15 3504.5,960.5C 3545.09,910.065 3585.92,859.732 3627,809.5C 3656.13,774.706 3685.63,740.206 3715.5,706C 3730.98,696.413 3746.65,696.08 3762.5,705C 3766.75,708.581 3770.25,712.748 3773,717.5C 3867.92,919.412 3942.08,1128.75 3995.5,1345.5 Z"/></g>
<g><path style="opacity:1" fill="#3473AB" d="M 3504.5,960.5 C 3387.69,1109.15 3276.86,1262.15 3172,1419.5C 3160.81,1437.22 3149.65,1454.89 3138.5,1472.5C 2794.86,1464.63 2451.19,1457.96 2107.5,1452.5C 2123.12,1294.22 2078.62,1155.89 1974,1037.5C 1928.22,988.543 1875.38,949.209 1815.5,919.5C 1998.52,825.858 2192.52,769.025 2397.5,749C 2751.5,716.945 3090.5,772.945 3414.5,917C 3444.67,931.255 3474.67,945.755 3504.5,960.5 Z"/></g>
<g><path style="opacity:1" fill="#72bd52" d="M 4436.5,2312.5 C 4433.7,2326.07 4431.37,2339.74 4429.5,2353.5C 4382.23,2298.77 4327.9,2252.77 4266.5,2215.5C 4264.24,2094.02 4258.74,1972.69 4250,1851.5C 4247.16,1817.13 4244,1782.8 4240.5,1748.5C 4249.12,1711.92 4256.45,1674.92 4262.5,1637.5C 4255.04,1635.24 4247.37,1633.91 4239.5,1633.5C 4236.73,1648.78 4234.4,1664.11 4232.5,1679.5C 4230.23,1663.94 4227.73,1648.27 4225,1632.5C 4208.17,1566 4167,1522.5 4101.5,1502C 4079.2,1496.4 4056.54,1493.9 4033.5,1494.5C 4043.22,1472.05 4053.22,1449.72 4063.5,1427.5C 4100.23,1344.82 4134.73,1261.16 4167,1176.5C 4199.94,1088.33 4231.28,999.661 4261,910.5C 4274.45,879.096 4298.28,865.262 4332.5,869C 4355.34,872.837 4371.51,885.337 4381,906.5C 4384.83,918.953 4387.83,931.62 4390,944.5C 4424.24,1124.51 4449.24,1305.84 4465,1488.5C 4478.9,1658.67 4481.23,1829 4472,1999.5C 4465.67,2104.47 4453.84,2208.8 4436.5,2312.5 Z"/></g>
<g><path style="opacity:1" fill="#ad0202" d="M 1568.5,885.5 C 1727.15,883.062 1859.98,939.729 1967,1055.5C 2070.03,1176.22 2110.03,1315.55 2087,1473.5C 2057.59,1629.48 1975.09,1747.98 1839.5,1829C 1715.81,1896.76 1585.81,1912.43 1449.5,1876C 1303.92,1831.07 1197.75,1740.24 1131,1603.5C 1076.38,1480.45 1069.71,1354.78 1111,1226.5C 1154.87,1105.65 1232.37,1013.15 1343.5,949C 1413.61,910.237 1488.61,889.071 1568.5,885.5 Z"/></g>
<g><path style="opacity:1" fill="#f2c6f6" d="M 1558.5,919.5 C 1705.72,913.492 1830.55,962.825 1933,1067.5C 1963.84,1100.84 1989.51,1137.84 2010,1178.5C 2011.19,1183.16 2009.35,1185.82 2004.5,1186.5C 2002.97,1186.47 2001.8,1185.8 2001,1184.5C 1929.96,1049.5 1819.46,966.996 1669.5,937C 1613.79,928.358 1558.13,928.358 1502.5,937C 1498.51,933.714 1498.51,930.381 1502.5,927C 1521.21,923.721 1539.87,921.221 1558.5,919.5 Z"/></g>
<g><path style="opacity:1" fill="#ffffff" d="M 1550.5,974.5 C 1686.3,969.35 1800.8,1015.68 1894,1113.5C 1988.62,1222.29 2022.62,1347.96 1996,1490.5C 1963.92,1625.56 1886.09,1724.39 1762.5,1787C 1656.2,1835.42 1547.54,1841.42 1436.5,1805C 1322.41,1762.91 1239.57,1686.74 1188,1576.5C 1136.85,1456.2 1138.19,1336.53 1192,1217.5C 1255.79,1091.15 1356.95,1012.65 1495.5,982C 1513.9,978.871 1532.23,976.371 1550.5,974.5 Z"/></g>
<g><path style="opacity:1" fill="#2b6114" d="M 3670.5,1484.5 C 3666.83,1484.5 3663.17,1484.5 3659.5,1484.5C 3663.82,1349.32 3663.48,1214.15 3658.5,1079C 3657.38,1071.77 3660.22,1069.6 3667,1072.5C 3667.33,1077.17 3667.67,1081.83 3668,1086.5C 3673,1219.14 3673.83,1351.8 3670.5,1484.5 Z"/></g>
<g><path style="opacity:1" fill="#ad0202" d="M 1527.5,1094.5 C 1561.26,1095.37 1594.92,1097.54 1628.5,1101C 1637.67,1103.5 1643.5,1109.33 1646,1118.5C 1641.03,1233.52 1635.37,1348.52 1629,1463.5C 1626.91,1474.59 1620.41,1481.42 1609.5,1484C 1589.83,1484.16 1570.17,1483.82 1550.5,1483C 1541.43,1480.26 1535.26,1474.43 1532,1465.5C 1525.18,1348.97 1518.68,1232.47 1512.5,1116C 1513.69,1106.11 1518.69,1098.94 1527.5,1094.5 Z"/></g>
<g><path style="opacity:1" fill="#3473AB" d="M 3995.5,1345.5 C 4019.12,1372.1 4041.79,1399.43 4063.5,1427.5C 4053.22,1449.72 4043.22,1472.05 4033.5,1494.5C 4031.83,1494.5 4030.17,1494.5 4028.5,1494.5C 4018.65,1444.61 4007.65,1394.94 3995.5,1345.5 Z"/></g>
<g><path style="opacity:1" fill="#494949" d="M 1078.5,1501.5 C 1066.67,1502.33 1054.67,1502.83 1042.5,1503C 1002.41,1509.42 974.244,1531.25 958,1568.5C 956.021,1574.42 954.354,1580.42 953,1586.5C 951.506,1847.81 951.006,2109.14 951.5,2370.5C 926.831,2370.33 902.164,2370.5 877.5,2371C 870.299,2371.72 863.299,2373.22 856.5,2375.5C 856.5,2270.5 856.5,2165.5 856.5,2060.5C 856.333,1906.83 856.5,1753.17 857,1599.5C 863.981,1537.99 894.481,1492.49 948.5,1463C 967.429,1453.6 987.429,1447.93 1008.5,1446C 1026.34,1445.72 1044.17,1445.22 1062,1444.5C 1064.5,1444.83 1067,1445.17 1069.5,1445.5C 1071.72,1464.28 1074.72,1482.95 1078.5,1501.5 Z"/></g>
<g><path style="opacity:1" fill="#494949" d="M 2107.5,1452.5 C 2451.19,1457.96 2794.86,1464.63 3138.5,1472.5C 3312.18,1476.13 3485.84,1480.13 3659.5,1484.5C 3663.17,1484.5 3666.83,1484.5 3670.5,1484.5C 3789.83,1487.74 3909.16,1491.08 4028.5,1494.5C 4030.17,1494.5 4031.83,1494.5 4033.5,1494.5C 4056.54,1493.9 4079.2,1496.4 4101.5,1502C 4167,1522.5 4208.17,1566 4225,1632.5C 4227.73,1648.27 4230.23,1663.94 4232.5,1679.5C 4235.06,1702.51 4237.72,1725.51 4240.5,1748.5C 4244,1782.8 4247.16,1817.13 4250,1851.5C 4258.74,1972.69 4264.24,2094.02 4266.5,2215.5C 4254.97,2208.57 4243.3,2201.9 4231.5,2195.5C 4206.07,2182.69 4180.07,2171.02 4153.5,2160.5C 4154.25,1988.83 4154.75,1817.17 4155,1645.5C 4148.4,1608.79 4127.9,1583.29 4093.5,1569C 4077.55,1564.18 4061.22,1562.18 4044.5,1563C 3401.17,1550 2757.83,1537 2114.5,1524C 2107.65,1523.83 2100.99,1523.33 2094.5,1522.5C 2100.13,1499.41 2104.46,1476.08 2107.5,1452.5 Z"/></g>
<g><path style="opacity:1" fill="#adc1e6" d="M 1078.5,1501.5 C 1113.46,1648.98 1195.46,1762.15 1324.5,1841C 1469.41,1922.16 1620.07,1934.49 1776.5,1878C 1908.23,1824.94 2004.4,1734.11 2065,1605.5C 2076.56,1578.32 2086.39,1550.65 2094.5,1522.5C 2100.99,1523.33 2107.65,1523.83 2114.5,1524C 2757.83,1537 3401.17,1550 4044.5,1563C 4061.22,1562.18 4077.55,1564.18 4093.5,1569C 4127.9,1583.29 4148.4,1608.79 4155,1645.5C 4154.75,1817.17 4154.25,1988.83 4153.5,2160.5C 4145.5,2157.5 4137.5,2154.5 4129.5,2151.5C 4110.3,2144.53 4090.97,2137.86 4071.5,2131.5C 4047.96,2121.86 4023.63,2114.53 3998.5,2109.5C 3994.28,2088.72 3986.44,2069.39 3975,2051.5C 3965.49,2036.32 3954.82,2021.99 3943,2008.5C 3928.61,1994.02 3911.11,1985.85 3890.5,1984C 3873.3,1980.98 3857.3,1983.98 3842.5,1993C 3838.21,1996.09 3836.54,2000.26 3837.5,2005.5C 3833.76,2002.26 3830.09,1998.76 3826.5,1995C 3821.95,1993.79 3817.28,1993.12 3812.5,1993C 3801.41,1988.66 3796.57,1980.5 3798,1968.5C 3793.99,1952.62 3784.49,1941.46 3769.5,1935C 3735.68,1922.83 3708.85,1931.66 3689,1961.5C 3676.7,1980.99 3672.37,2001.99 3676,2024.5C 3681.69,2036.52 3690.85,2044.68 3703.5,2049C 3709.14,2051.32 3714.8,2053.15 3720.5,2054.5C 3718.21,2054.76 3716.04,2054.42 3714,2053.5C 3713.09,2054.33 3712.42,2055.33 3712,2056.5C 3702.34,2101.46 3692.84,2146.46 3683.5,2191.5C 3685.74,2191.21 3687.74,2191.54 3689.5,2192.5C 3679.2,2191.4 3672.37,2195.73 3669,2205.5C 3661.01,2240.4 3656.68,2275.74 3656,2311.5C 3657.83,2318.67 3662.33,2323.17 3669.5,2325C 3707.76,2329.84 3746.09,2330.68 3784.5,2327.5C 3783.97,2339.55 3782.97,2351.55 3781.5,2363.5C 3780.21,2363.26 3779.21,2363.6 3778.5,2364.5C 3719.65,2371.17 3664.65,2389.34 3613.5,2419C 3587.49,2437.01 3566.32,2459.51 3550,2486.5C 3532.84,2516.16 3519.5,2547.5 3510,2580.5C 3503.46,2606.2 3496.79,2631.87 3490,2657.5C 3487.78,2665.48 3484.78,2673.15 3481,2680.5C 3477.58,2684.75 3473.41,2685.59 3468.5,2683C 3465.63,2679.42 3463.13,2675.59 3461,2671.5C 3452.48,2646.06 3446.65,2620.06 3443.5,2593.5C 3434.83,2533.02 3435.83,2472.68 3446.5,2412.5C 3448.02,2403.78 3449.85,2395.11 3452,2386.5C 3467.67,2370.18 3479,2351.18 3486,2329.5C 3492.92,2288.36 3498.42,2247.02 3502.5,2205.5C 3485.8,2207.7 3474.64,2216.7 3469,2232.5C 3469.28,2244.56 3466.61,2255.9 3461,2266.5C 3458.24,2269.93 3454.91,2272.59 3451,2274.5C 3421.76,2240.35 3392.76,2206.02 3364,2171.5C 3355.72,2160.77 3344.88,2154.27 3331.5,2152C 3320.82,2151.52 3310.16,2151.68 3299.5,2152.5C 3314.05,2227.49 3341.71,2297.16 3382.5,2361.5C 3382.93,2371.67 3383.6,2381.67 3384.5,2391.5C 3361.04,2449.97 3342.21,2509.97 3328,2571.5C 3325.84,2582.79 3324.01,2594.13 3322.5,2605.5C 3307.46,2673.13 3305.63,2741.13 3317,2809.5C 3323.36,2846.94 3338.02,2880.61 3361,2910.5C 3382.66,2935.75 3410.16,2948.08 3443.5,2947.5C 3528.57,2938.97 3597.91,2901.64 3651.5,2835.5C 3679.32,2916.43 3698.48,2999.43 3709,3084.5C 3713.47,3126.15 3713.64,3167.82 3709.5,3209.5C 3116.5,3202.15 2523.5,3194.82 1930.5,3187.5C 1930.67,2951.83 1930.5,2716.17 1930,2480.5C 1921.12,2424.95 1889.62,2389.45 1835.5,2374C 1829.25,2372.48 1822.91,2371.48 1816.5,2371C 1528.17,2370.5 1239.83,2370.33 951.5,2370.5C 951.006,2109.14 951.506,1847.81 953,1586.5C 954.354,1580.42 956.021,1574.42 958,1568.5C 974.244,1531.25 1002.41,1509.42 1042.5,1503C 1054.67,1502.83 1066.67,1502.33 1078.5,1501.5 Z"/></g>
<g><path style="opacity:1" fill="#ad0202" d="M 1569.5,1550.5 C 1631.64,1549.15 1657.47,1579.15 1647,1640.5C 1639.37,1666.79 1621.87,1681.62 1594.5,1685C 1566.42,1690.29 1542.92,1682.45 1524,1661.5C 1511.71,1640.59 1508.38,1618.25 1514,1594.5C 1522.96,1567.77 1541.46,1553.1 1569.5,1550.5 Z"/></g>
<g><path style="opacity:1" fill="#263A29" d="M 4240.5,1748.5 C 4237.72,1725.51 4235.06,1702.51 4232.5,1679.5C 4234.4,1664.11 4236.73,1648.78 4239.5,1633.5C 4247.37,1633.91 4255.04,1635.24 4262.5,1637.5C 4256.45,1674.92 4249.12,1711.92 4240.5,1748.5 Z"/></g>
<g><path style="opacity:1" fill="#757571" d="M 2615.5,1695.5 C 2626.78,1692.86 2635.61,1696.2 2642,1705.5C 2645.02,1718.97 2639.86,1727.14 2626.5,1730C 2607.6,1731.23 2588.77,1733.07 2570,1735.5C 2556.03,1734.86 2550.03,1727.52 2552,1713.5C 2554.37,1706.46 2559.2,1702.3 2566.5,1701C 2582.95,1698.92 2599.29,1697.08 2615.5,1695.5 Z"/></g>
<g><path style="opacity:1" fill="#757571" d="M 2712.5,1696.5 C 2727.05,1696.14 2741.39,1697.64 2755.5,1701C 2764.37,1708.45 2765.87,1717.29 2760,1727.5C 2756.15,1731.42 2751.49,1733.42 2746,1733.5C 2735.16,1732.37 2724.33,1731.21 2713.5,1730C 2702.57,1724.32 2699.4,1715.82 2704,1704.5C 2706.58,1701.48 2709.41,1698.81 2712.5,1696.5 Z"/></g>
<g><path style="opacity:1" fill="#757571" d="M 2472.5,1721.5 C 2488.82,1720.04 2496.32,1727.38 2495,1743.5C 2493.79,1746.76 2491.96,1749.59 2489.5,1752C 2468.77,1759.02 2448.1,1766.35 2427.5,1774C 2416.71,1775.55 2409.88,1771.05 2407,1760.5C 2405.92,1753.5 2408.08,1747.66 2413.5,1743C 2432.94,1734.91 2452.61,1727.74 2472.5,1721.5 Z"/></g>
<g><path style="opacity:1" fill="#757571" d="M 2334.5,1779.5 C 2350.17,1778.67 2357.67,1786 2357,1801.5C 2355.86,1803.93 2354.52,1806.26 2353,1808.5C 2334.23,1819.6 2315.73,1831.1 2297.5,1843C 2286.77,1846.05 2279.27,1842.55 2275,1832.5C 2273.91,1826.9 2274.58,1821.57 2277,1816.5C 2280.04,1813.07 2283.54,1810.23 2287.5,1808C 2303.07,1798.24 2318.74,1788.74 2334.5,1779.5 Z"/></g>
<g><path style="opacity:1" fill="#757571" d="M 2755.5,2072.5 C 2653.98,2030.65 2557.65,2040.15 2466.5,2101C 2382.97,2164.56 2342.81,2249.06 2346,2354.5C 2353.21,2443.44 2391.71,2515.27 2461.5,2570C 2469.79,2571.95 2473.29,2568.79 2472,2560.5C 2399.06,2503.78 2361.56,2428.95 2359.5,2336C 2362.56,2242.53 2401.23,2167.87 2475.5,2112C 2561.19,2055.03 2651.85,2045.86 2747.5,2084.5C 2747.61,2085.12 2747.94,2085.62 2748.5,2086C 2732.24,2111.85 2716.24,2137.85 2700.5,2164C 2735.05,2212.93 2770.22,2261.43 2806,2309.5C 2809.68,2314.2 2812.85,2319.2 2815.5,2324.5C 2815.47,2326.03 2814.8,2327.2 2813.5,2328C 2793.95,2330.9 2774.45,2334.06 2755,2337.5C 2753.99,2336.94 2753.16,2336.28 2752.5,2335.5C 2749.11,2284.29 2723.78,2248.79 2676.5,2229C 2620.46,2211.57 2574.3,2225.74 2538,2271.5C 2510.91,2314 2509.57,2357.34 2534,2401.5C 2538.95,2408.95 2544.45,2415.95 2550.5,2422.5C 2549.93,2424.26 2549.09,2425.92 2548,2427.5C 2533.33,2443.5 2518.67,2459.5 2504,2475.5C 2503.83,2476.33 2503.67,2477.17 2503.5,2478C 2518.9,2527.43 2534.07,2576.93 2549,2626.5C 2549.86,2629.96 2548.69,2632.46 2545.5,2634C 2502.83,2634.33 2460.17,2634.67 2417.5,2635C 2405.71,2652.08 2394.04,2669.25 2382.5,2686.5C 2344.98,2659.15 2312.65,2626.65 2285.5,2589C 2254.16,2589.94 2222.82,2591.44 2191.5,2593.5C 2187.9,2593.74 2184.56,2593.08 2181.5,2591.5C 2165.01,2553.52 2149.34,2515.18 2134.5,2476.5C 2136.47,2472.01 2139.47,2468.18 2143.5,2465C 2165.76,2445.95 2187.93,2426.78 2210,2407.5C 2207.82,2385.08 2206.32,2362.58 2205.5,2340C 2206.22,2315.71 2208.06,2291.54 2211,2267.5C 2187.17,2246.33 2163.33,2225.17 2139.5,2204C 2137.41,2202.15 2136.41,2199.81 2136.5,2197C 2151.41,2159.29 2166.91,2121.79 2183,2084.5C 2184.71,2081.61 2187.21,2080.28 2190.5,2080.5C 2223.13,2083.33 2255.79,2085.16 2288.5,2086C 2315.73,2048.94 2348.06,2017.11 2385.5,1990.5C 2384.76,1958.18 2383.09,1925.85 2380.5,1893.5C 2380.35,1888.97 2382.35,1885.8 2386.5,1884C 2423.27,1868.97 2460.1,1854.13 2497,1839.5C 2501.68,1840.16 2505.34,1842.5 2508,1846.5C 2527,1868.5 2546,1890.5 2565,1912.5C 2566.12,1914.12 2567.62,1915.12 2569.5,1915.5C 2597.99,1910.92 2626.66,1909.42 2655.5,1911C 2672.59,1912.31 2689.59,1913.98 2706.5,1916C 2728.6,1891.14 2750.93,1866.48 2773.5,1842C 2778.07,1841.11 2782.41,1841.78 2786.5,1844C 2821.17,1858.67 2855.83,1873.33 2890.5,1888C 2891.33,1888.83 2892.17,1889.67 2893,1890.5C 2892.08,1923.2 2890.24,1955.87 2887.5,1988.5C 2886.77,1992.18 2888.1,1994.68 2891.5,1996C 2852.86,2012.22 2814.03,2028.05 2775,2043.5C 2768.49,2053.2 2761.99,2062.87 2755.5,2072.5 Z"/></g>
<g><path style="opacity:1" fill="#757571" d="M 2213.5,1866.5 C 2226.13,1865.47 2233.46,1871.14 2235.5,1883.5C 2235.24,1887.45 2234.07,1891.12 2232,1894.5C 2216.53,1908.97 2201.36,1923.8 2186.5,1939C 2174.83,1944.07 2166.33,1940.9 2161,1929.5C 2160.12,1924.71 2160.45,1920.05 2162,1915.5C 2177.8,1897.53 2194.97,1881.2 2213.5,1866.5 Z"/></g>
<g><path style="opacity:1" fill="#030202" d="M 3837.5,2005.5 C 3838.58,2011.08 3841.91,2014.58 3847.5,2016C 3855.42,2017.77 3863.42,2019.1 3871.5,2020C 3892.17,2025.68 3904.01,2039.18 3907,2060.5C 3907.44,2075.34 3907.27,2090.17 3906.5,2105C 3905.62,2125.87 3911.29,2144.7 3923.5,2161.5C 3920.19,2165.81 3915.85,2168.48 3910.5,2169.5C 3900.04,2158.07 3887.04,2153.91 3871.5,2157C 3862.34,2161.46 3855.51,2168.29 3851,2177.5C 3842.25,2194.91 3836.42,2213.25 3833.5,2232.5C 3821.71,2261.02 3810.21,2289.68 3799,2318.5C 3795.68,2323.91 3790.85,2326.91 3784.5,2327.5C 3746.09,2330.68 3707.76,2329.84 3669.5,2325C 3662.33,2323.17 3657.83,2318.67 3656,2311.5C 3656.68,2275.74 3661.01,2240.4 3669,2205.5C 3672.37,2195.73 3679.2,2191.4 3689.5,2192.5C 3698.52,2194.34 3706.86,2197.84 3714.5,2203C 3726.71,2211.27 3738.37,2220.27 3749.5,2230C 3759.83,2237.33 3770.17,2237.33 3780.5,2230C 3785.75,2225.42 3790.25,2220.26 3794,2214.5C 3804.47,2177.43 3815.13,2140.43 3826,2103.5C 3826.74,2099.74 3826.4,2096.07 3825,2092.5C 3815.63,2077.8 3803.13,2066.63 3787.5,2059C 3782.63,2057.37 3777.63,2056.53 3772.5,2056.5C 3755.06,2058.19 3737.73,2057.52 3720.5,2054.5C 3714.8,2053.15 3709.14,2051.32 3703.5,2049C 3690.85,2044.68 3681.69,2036.52 3676,2024.5C 3672.37,2001.99 3676.7,1980.99 3689,1961.5C 3708.85,1931.66 3735.68,1922.83 3769.5,1935C 3784.49,1941.46 3793.99,1952.62 3798,1968.5C 3796.57,1980.5 3801.41,1988.66 3812.5,1993C 3817.28,1993.12 3821.95,1993.79 3826.5,1995C 3830.09,1998.76 3833.76,2002.26 3837.5,2005.5 Z"/></g>
<g><path style="opacity:1" fill="#757571" d="M 3242.5,1956.5 C 3247.74,1956.02 3252.74,1956.86 3257.5,1959C 3266.81,1968.64 3274.98,1979.14 3282,1990.5C 3283.37,2003.63 3277.53,2010.96 3264.5,2012.5C 3261.21,2012.7 3258.21,2011.87 3255.5,2010C 3247.62,2001.12 3240.12,1991.96 3233,1982.5C 3228.15,1970.88 3231.32,1962.22 3242.5,1956.5 Z"/></g>
<g><path style="opacity:1" fill="#757571" d="M 2114.5,1978.5 C 2130.96,1978.48 2137.8,1986.48 2135,2002.5C 2123.94,2019.23 2113.27,2036.23 2103,2053.5C 2096.27,2061.76 2088.11,2063.59 2078.5,2059C 2071.47,2053.25 2069.31,2046.09 2072,2037.5C 2082.5,2019.83 2093.5,2002.5 2105,1985.5C 2107.79,1982.53 2110.96,1980.2 2114.5,1978.5 Z"/></g>
<g><path style="opacity:1" fill="#ffffe7" d="M 4071.5,2131.5 C 4070.85,2132.81 4069.85,2133.81 4068.5,2134.5C 4067.03,2134.28 4065.53,2133.94 4064,2133.5C 4061.38,2136.07 4058.72,2136.07 4056,2133.5C 4055.5,2136.82 4055.33,2140.15 4055.5,2143.5C 4052.1,2143.18 4048.77,2143.51 4045.5,2144.5C 4045.85,2145.7 4046.35,2145.7 4047,2144.5C 4047.81,2146.9 4047.65,2149.24 4046.5,2151.5C 4045.96,2145.49 4044.62,2145.16 4042.5,2150.5C 4041.68,2151.39 4040.68,2151.72 4039.5,2151.5C 4039.83,2156.87 4039.49,2162.21 4038.5,2167.5C 4037.68,2164.89 4037.18,2162.23 4037,2159.5C 4035.41,2162.92 4033.25,2165.92 4030.5,2168.5C 4030.99,2169.45 4031.32,2170.45 4031.5,2171.5C 4029.86,2175.32 4029.19,2179.32 4029.5,2183.5C 4026.93,2183.15 4024.59,2183.65 4022.5,2185C 4022.73,2187.27 4023.06,2189.77 4023.5,2192.5C 4010.95,2186.06 3998.28,2179.89 3985.5,2174C 3967.85,2175.72 3950.51,2174.05 3933.5,2169C 3929.72,2167.05 3926.39,2164.55 3923.5,2161.5C 3911.29,2144.7 3905.62,2125.87 3906.5,2105C 3907.27,2090.17 3907.44,2075.34 3907,2060.5C 3904.01,2039.18 3892.17,2025.68 3871.5,2020C 3863.42,2019.1 3855.42,2017.77 3847.5,2016C 3841.91,2014.58 3838.58,2011.08 3837.5,2005.5C 3836.54,2000.26 3838.21,1996.09 3842.5,1993C 3857.3,1983.98 3873.3,1980.98 3890.5,1984C 3911.11,1985.85 3928.61,1994.02 3943,2008.5C 3954.82,2021.99 3965.49,2036.32 3975,2051.5C 3986.44,2069.39 3994.28,2088.72 3998.5,2109.5C 4023.63,2114.53 4047.96,2121.86 4071.5,2131.5 Z"/></g>
<g><path style="opacity:1" fill="#757571" d="M 2662.5,2470.5 C 2701.12,2505.19 2744.79,2513.02 2793.5,2494C 2834.03,2474.48 2857.03,2442.31 2862.5,2397.5C 2863.49,2393.03 2863.82,2388.36 2863.5,2383.5C 2884.93,2380.26 2906.26,2376.59 2927.5,2372.5C 2888.29,2318.46 2849.29,2264.3 2810.5,2210C 2826.39,2183.7 2842.39,2157.54 2858.5,2131.5C 2945.25,2172.46 2998.42,2240.12 3018,2334.5C 3031.5,2425.98 3007.5,2505.98 2946,2574.5C 2903.65,2617.76 2852.48,2644.93 2792.5,2656C 2786.3,2659.83 2785.96,2664.16 2791.5,2669C 2861.79,2658.11 2920.29,2625.94 2967,2572.5C 3031.46,2492.4 3050.79,2402.4 3025,2302.5C 2998.65,2218.4 2945.81,2157.4 2866.5,2119.5C 2871.9,2109.02 2878.07,2099.02 2885,2089.5C 2923.87,2073.93 2962.71,2058.26 3001.5,2042.5C 3037.39,2069.23 3068.39,2100.73 3094.5,2137C 3124.29,2135.56 3154.13,2134.06 3184,2132.5C 3188.17,2132.67 3192.33,2132.83 3196.5,2133C 3197.93,2133.47 3199.1,2134.3 3200,2135.5C 3215.27,2173.15 3230.44,2210.82 3245.5,2248.5C 3244.62,2252.89 3242.29,2256.39 3238.5,2259C 3216.5,2278 3194.5,2297 3172.5,2316C 3170.64,2317.18 3169.64,2318.85 3169.5,2321C 3173.6,2350.03 3175.1,2379.2 3174,2408.5C 3172.55,2425.23 3170.88,2441.9 3169,2458.5C 3193.33,2480.17 3217.67,2501.83 3242,2523.5C 3242.96,2525.2 3243.46,2527.03 3243.5,2529C 3228.43,2566.64 3212.93,2604.14 3197,2641.5C 3195.16,2643.71 3192.83,2645.04 3190,2645.5C 3157.2,2643.02 3124.37,2640.86 3091.5,2639C 3064.98,2676.35 3032.98,2708.19 2995.5,2734.5C 2995.4,2767.03 2996.73,2799.53 2999.5,2832C 2999.39,2834.73 2998.55,2837.23 2997,2839.5C 2959.6,2855.19 2922.1,2870.69 2884.5,2886C 2882.03,2886.71 2879.7,2886.37 2877.5,2885C 2856.07,2860.15 2834.4,2835.48 2812.5,2811C 2799.84,2811.71 2787.17,2812.71 2774.5,2814C 2741.33,2815.77 2708.33,2814.27 2675.5,2809.5C 2671.27,2812.22 2667.44,2815.55 2664,2819.5C 2645.54,2840.96 2626.7,2862.13 2607.5,2883C 2604.63,2884.46 2601.63,2884.79 2598.5,2884C 2561.56,2868.28 2524.73,2852.44 2488,2836.5C 2486.9,2832.45 2486.4,2828.28 2486.5,2824C 2487.95,2795.48 2489.78,2766.98 2492,2738.5C 2492.24,2735.71 2492.91,2733.04 2494,2730.5C 2505.29,2714.09 2516.46,2697.59 2527.5,2681C 2572.17,2680.83 2616.84,2680.33 2661.5,2679.5C 2645.32,2627.62 2629.32,2575.62 2613.5,2523.5C 2628.45,2506.05 2643.62,2488.71 2659,2471.5C 2660.01,2470.66 2661.18,2470.33 2662.5,2470.5 Z"/></g>
<g><path style="opacity:1" fill="#bcbcbc" d="M 2755.5,2072.5 C 2753.8,2077.26 2751.13,2081.26 2747.5,2084.5C 2651.85,2045.86 2561.19,2055.03 2475.5,2112C 2401.23,2167.87 2362.56,2242.53 2359.5,2336C 2361.56,2428.95 2399.06,2503.78 2472,2560.5C 2473.29,2568.79 2469.79,2571.95 2461.5,2570C 2391.71,2515.27 2353.21,2443.44 2346,2354.5C 2342.81,2249.06 2382.97,2164.56 2466.5,2101C 2557.65,2040.15 2653.98,2030.65 2755.5,2072.5 Z"/></g>
<g><path style="opacity:1" fill="#757571" d="M 3311.5,2054.5 C 3319.24,2053.58 3325.41,2056.24 3330,2062.5C 3339.27,2080.04 3348.27,2097.71 3357,2115.5C 3359.49,2132.34 3352.32,2140.17 3335.5,2139C 3332.75,2137.88 3330.25,2136.38 3328,2134.5C 3319.21,2116.25 3309.87,2098.25 3300,2080.5C 3294.92,2067.78 3298.76,2059.11 3311.5,2054.5 Z"/></g>
<g><path style="opacity:1" fill="#edcea7" d="M 3720.5,2054.5 C 3737.73,2057.52 3755.06,2058.19 3772.5,2056.5C 3777.63,2056.53 3782.63,2057.37 3787.5,2059C 3803.13,2066.63 3815.63,2077.8 3825,2092.5C 3826.4,2096.07 3826.74,2099.74 3826,2103.5C 3815.13,2140.43 3804.47,2177.43 3794,2214.5C 3790.25,2220.26 3785.75,2225.42 3780.5,2230C 3770.17,2237.33 3759.83,2237.33 3749.5,2230C 3738.37,2220.27 3726.71,2211.27 3714.5,2203C 3706.86,2197.84 3698.52,2194.34 3689.5,2192.5C 3687.74,2191.54 3685.74,2191.21 3683.5,2191.5C 3692.84,2146.46 3702.34,2101.46 3712,2056.5C 3712.42,2055.33 3713.09,2054.33 3714,2053.5C 3716.04,2054.42 3718.21,2054.76 3720.5,2054.5 Z"/></g>
<g><path style="opacity:1" fill="#3473AB" d="M 856.5,2060.5 C 856.5,2165.5 856.5,2270.5 856.5,2375.5C 811.685,2389.48 782.852,2419.15 770,2464.5C 768.814,2470.8 767.814,2477.14 767,2483.5C 766.5,2723.83 766.333,2964.17 766.5,3204.5C 738.836,3074.66 725.17,2943.16 725.5,2810C 725.834,2576.81 761.667,2349.31 833,2127.5C 840.171,2104.82 848.004,2082.48 856.5,2060.5 Z"/></g>
<g><path style="opacity:1" fill="#757571" d="M 2041.5,2110.5 C 2051.03,2108.85 2058.2,2112.18 2063,2120.5C 2064.37,2123.74 2064.7,2127.07 2064,2130.5C 2056.39,2150.73 2049.05,2171.06 2042,2191.5C 2035.01,2198.99 2026.84,2200.49 2017.5,2196C 2011.53,2190.41 2009.36,2183.58 2011,2175.5C 2017.21,2156.19 2024.21,2137.19 2032,2118.5C 2034.77,2115.22 2037.94,2112.55 2041.5,2110.5 Z"/></g>
<g><path style="opacity:1" fill="#bcbcbc" d="M 2866.5,2119.5 C 2945.81,2157.4 2998.65,2218.4 3025,2302.5C 3050.79,2402.4 3031.46,2492.4 2967,2572.5C 2920.29,2625.94 2861.79,2658.11 2791.5,2669C 2785.96,2664.16 2786.3,2659.83 2792.5,2656C 2852.48,2644.93 2903.65,2617.76 2946,2574.5C 3007.5,2505.98 3031.5,2425.98 3018,2334.5C 2998.42,2240.12 2945.25,2172.46 2858.5,2131.5C 2860.81,2127.21 2863.47,2123.21 2866.5,2119.5 Z"/></g>
<g><path style="opacity:1" fill="#edcea7" d="M 4071.5,2131.5 C 4090.97,2137.86 4110.3,2144.53 4129.5,2151.5C 4128.91,2152.15 4128.24,2152.82 4127.5,2153.5C 4128.5,2154.33 4129.5,2155.17 4130.5,2156C 4129.38,2156.25 4128.38,2156.75 4127.5,2157.5C 4135.86,2158.03 4139.03,2162.36 4137,2170.5C 4135.43,2174.24 4133.26,2177.57 4130.5,2180.5C 4129.67,2179.5 4128.83,2178.5 4128,2177.5C 4127.5,2179.47 4127.34,2181.47 4127.5,2183.5C 4131.3,2183.82 4131.47,2184.82 4128,2186.5C 4127.51,2188.13 4127.34,2189.8 4127.5,2191.5C 4125.41,2191.56 4123.91,2192.56 4123,2194.5C 4122.17,2193.5 4121.33,2192.5 4120.5,2191.5C 4119.67,2197.14 4119.17,2202.8 4119,2208.5C 4118.59,2208.04 4118.09,2207.71 4117.5,2207.5C 4114.6,2209.85 4112.6,2212.85 4111.5,2216.5C 4110.31,2217.43 4108.98,2217.76 4107.5,2217.5C 4108.21,2221.32 4107.04,2224.32 4104,2226.5C 4103.5,2228.47 4103.34,2230.47 4103.5,2232.5C 4102.45,2232.35 4101.45,2232.52 4100.5,2233C 4099.89,2234.3 4099.55,2235.47 4099.5,2236.5C 4097.16,2234.77 4097.16,2233.27 4099.5,2232C 4096.83,2231.33 4094.17,2231.33 4091.5,2232C 4090.94,2232.38 4090.61,2232.88 4090.5,2233.5C 4069.03,2218.59 4046.7,2204.92 4023.5,2192.5C 4023.06,2189.77 4022.73,2187.27 4022.5,2185C 4024.59,2183.65 4026.93,2183.15 4029.5,2183.5C 4029.19,2179.32 4029.86,2175.32 4031.5,2171.5C 4031.32,2170.45 4030.99,2169.45 4030.5,2168.5C 4033.25,2165.92 4035.41,2162.92 4037,2159.5C 4037.18,2162.23 4037.68,2164.89 4038.5,2167.5C 4039.49,2162.21 4039.83,2156.87 4039.5,2151.5C 4040.68,2151.72 4041.68,2151.39 4042.5,2150.5C 4044.62,2145.16 4045.96,2145.49 4046.5,2151.5C 4047.65,2149.24 4047.81,2146.9 4047,2144.5C 4046.35,2145.7 4045.85,2145.7 4045.5,2144.5C 4048.77,2143.51 4052.1,2143.18 4055.5,2143.5C 4055.33,2140.15 4055.5,2136.82 4056,2133.5C 4058.72,2136.07 4061.38,2136.07 4064,2133.5C 4065.53,2133.94 4067.03,2134.28 4068.5,2134.5C 4069.85,2133.81 4070.85,2132.81 4071.5,2131.5 Z"/></g>
<g><path style="opacity:1" fill="#ffffe7" d="M 3446.5,2412.5 C 3441.49,2407.83 3436.16,2403.5 3430.5,2399.5C 3419.76,2393.26 3409.43,2386.43 3399.5,2379C 3396.91,2377.55 3394.24,2376.39 3391.5,2375.5C 3391.74,2374.21 3391.4,2373.21 3390.5,2372.5C 3387.8,2368.81 3385.13,2365.14 3382.5,2361.5C 3341.71,2297.16 3314.05,2227.49 3299.5,2152.5C 3310.16,2151.68 3320.82,2151.52 3331.5,2152C 3344.88,2154.27 3355.72,2160.77 3364,2171.5C 3392.76,2206.02 3421.76,2240.35 3451,2274.5C 3454.91,2272.59 3458.24,2269.93 3461,2266.5C 3466.61,2255.9 3469.28,2244.56 3469,2232.5C 3474.64,2216.7 3485.8,2207.7 3502.5,2205.5C 3498.42,2247.02 3492.92,2288.36 3486,2329.5C 3479,2351.18 3467.67,2370.18 3452,2386.5C 3449.85,2395.11 3448.02,2403.78 3446.5,2412.5 Z"/></g>
<g><path style="opacity:1" fill="#edcea7" d="M 3910.5,2169.5 C 3915.63,2179.69 3915.8,2190.02 3911,2200.5C 3907.4,2207.91 3903.24,2214.91 3898.5,2221.5C 3890.17,2231.16 3879.84,2237.49 3867.5,2240.5C 3855.76,2240.98 3844.92,2237.98 3835,2231.5C 3834.62,2232.06 3834.12,2232.39 3833.5,2232.5C 3836.42,2213.25 3842.25,2194.91 3851,2177.5C 3855.51,2168.29 3862.34,2161.46 3871.5,2157C 3887.04,2153.91 3900.04,2158.07 3910.5,2169.5 Z"/></g>
<g><path style="opacity:1" fill="#adc1e6" d="M 3923.5,2161.5 C 3926.39,2164.55 3929.72,2167.05 3933.5,2169C 3950.51,2174.05 3967.85,2175.72 3985.5,2174C 3998.28,2179.89 4010.95,2186.06 4023.5,2192.5C 4046.7,2204.92 4069.03,2218.59 4090.5,2233.5C 4111.03,2249.35 4130.69,2266.35 4149.5,2284.5C 4150.83,2286.17 4152.17,2287.83 4153.5,2289.5C 4153.74,2328.84 4153.41,2368.18 4152.5,2407.5C 4129.29,2398.82 4105.63,2391.65 4081.5,2386C 4032.61,2378.04 3983.61,2370.87 3934.5,2364.5C 3930.09,2314.75 3918.09,2267.09 3898.5,2221.5C 3903.24,2214.91 3907.4,2207.91 3911,2200.5C 3915.8,2190.02 3915.63,2179.69 3910.5,2169.5C 3915.85,2168.48 3920.19,2165.81 3923.5,2161.5 Z"/></g>
<g><path style="opacity:1" fill="#edcea7" d="M 4129.5,2151.5 C 4137.5,2154.5 4145.5,2157.5 4153.5,2160.5C 4180.07,2171.02 4206.07,2182.69 4231.5,2195.5C 4206.36,2211.81 4184.86,2232.14 4167,2256.5C 4160.89,2265.73 4155.06,2275.06 4149.5,2284.5C 4130.69,2266.35 4111.03,2249.35 4090.5,2233.5C 4090.61,2232.88 4090.94,2232.38 4091.5,2232C 4094.17,2231.33 4096.83,2231.33 4099.5,2232C 4097.16,2233.27 4097.16,2234.77 4099.5,2236.5C 4099.55,2235.47 4099.89,2234.3 4100.5,2233C 4101.45,2232.52 4102.45,2232.35 4103.5,2232.5C 4103.34,2230.47 4103.5,2228.47 4104,2226.5C 4107.04,2224.32 4108.21,2221.32 4107.5,2217.5C 4108.98,2217.76 4110.31,2217.43 4111.5,2216.5C 4112.6,2212.85 4114.6,2209.85 4117.5,2207.5C 4118.09,2207.71 4118.59,2208.04 4119,2208.5C 4119.17,2202.8 4119.67,2197.14 4120.5,2191.5C 4121.33,2192.5 4122.17,2193.5 4123,2194.5C 4123.91,2192.56 4125.41,2191.56 4127.5,2191.5C 4127.34,2189.8 4127.51,2188.13 4128,2186.5C 4131.47,2184.82 4131.3,2183.82 4127.5,2183.5C 4127.34,2181.47 4127.5,2179.47 4128,2177.5C 4128.83,2178.5 4129.67,2179.5 4130.5,2180.5C 4133.26,2177.57 4135.43,2174.24 4137,2170.5C 4139.03,2162.36 4135.86,2158.03 4127.5,2157.5C 4128.38,2156.75 4129.38,2156.25 4130.5,2156C 4129.5,2155.17 4128.5,2154.33 4127.5,2153.5C 4128.24,2152.82 4128.91,2152.15 4129.5,2151.5 Z"/></g>
<g><path style="opacity:1" fill="#426b50" d="M 4231.5,2195.5 C 4243.3,2201.9 4254.97,2208.57 4266.5,2215.5C 4327.9,2252.77 4382.23,2298.77 4429.5,2353.5C 4435.17,2361.51 4440.84,2369.51 4446.5,2377.5C 4465.49,2404.63 4477.32,2434.63 4482,2467.5C 4484.57,2497.47 4478.41,2525.47 4463.5,2551.5C 4445.89,2580.28 4423.22,2604.45 4395.5,2624C 4381.2,2634.15 4366.53,2643.65 4351.5,2652.5C 4329.07,2664.71 4306.07,2675.88 4282.5,2686C 4278.27,2688.27 4274.27,2690.77 4270.5,2693.5C 4232.59,2712.47 4192.92,2725.8 4151.5,2733.5C 4147.18,2734.04 4142.85,2734.54 4138.5,2735C 4137.33,2735.5 4136.5,2736.33 4136,2737.5C 4088.33,2890.16 4063.83,3046.49 4062.5,3206.5C 4062.17,3207.17 4061.83,3207.83 4061.5,3208.5C 4059.66,3211.17 4057.33,3213.33 4054.5,3215C 4026.99,3224.9 3998.65,3231.24 3969.5,3234C 3924.19,3238.14 3878.86,3238.48 3833.5,3235C 3796.7,3232.71 3760.04,3229.21 3723.5,3224.5C 3716.75,3221.41 3712.08,3216.41 3709.5,3209.5C 3713.64,3167.82 3713.47,3126.15 3709,3084.5C 3698.48,2999.43 3679.32,2916.43 3651.5,2835.5C 3597.91,2901.64 3528.57,2938.97 3443.5,2947.5C 3410.16,2948.08 3382.66,2935.75 3361,2910.5C 3338.02,2880.61 3323.36,2846.94 3317,2809.5C 3305.63,2741.13 3307.46,2673.13 3322.5,2605.5C 3362.56,2598.8 3402.89,2594.8 3443.5,2593.5C 3446.65,2620.06 3452.48,2646.06 3461,2671.5C 3463.13,2675.59 3465.63,2679.42 3468.5,2683C 3473.41,2685.59 3477.58,2684.75 3481,2680.5C 3484.78,2673.15 3487.78,2665.48 3490,2657.5C 3496.79,2631.87 3503.46,2606.2 3510,2580.5C 3519.5,2547.5 3532.84,2516.16 3550,2486.5C 3566.32,2459.51 3587.49,2437.01 3613.5,2419C 3664.65,2389.34 3719.65,2371.17 3778.5,2364.5C 3779.65,2364.79 3780.32,2365.62 3780.5,2367C 3779.15,2374.23 3777.48,2381.4 3775.5,2388.5C 3777.23,2391.74 3779.57,2394.58 3782.5,2397C 3806.07,2414.58 3832.4,2420.58 3861.5,2415C 3888.07,2409.88 3912.74,2400.05 3935.5,2385.5C 3935.83,2384.33 3936.17,2383.17 3936.5,2382C 3935.72,2376.17 3935.06,2370.34 3934.5,2364.5C 3983.61,2370.87 4032.61,2378.04 4081.5,2386C 4105.63,2391.65 4129.29,2398.82 4152.5,2407.5C 4183.07,2420.94 4214.07,2433.61 4245.5,2445.5C 4246.09,2445.29 4246.59,2444.96 4247,2444.5C 4247.99,2429.81 4249.16,2415.14 4250.5,2400.5C 4250.33,2396.83 4250.17,2393.17 4250,2389.5C 4247.5,2384.49 4244.5,2379.83 4241,2375.5C 4211.66,2346.99 4182.49,2318.33 4153.5,2289.5C 4152.17,2287.83 4150.83,2286.17 4149.5,2284.5C 4155.06,2275.06 4160.89,2265.73 4167,2256.5C 4184.86,2232.14 4206.36,2211.81 4231.5,2195.5 Z"/></g>
<g><path style="opacity:1" fill="#72bd52" d="M 2752.5,2335.5 C 2752.5,2336.5 2752.5,2337.5 2752.5,2338.5C 2743.7,2338.97 2735.03,2340.3 2726.5,2342.5C 2725.83,2339.02 2725.17,2335.69 2724.5,2332.5C 2720.25,2295.41 2700.92,2269.58 2666.5,2255C 2625.98,2242.17 2591.81,2251.67 2564,2283.5C 2540.3,2316.82 2538.3,2351.49 2558,2387.5C 2561.67,2392.66 2565.5,2397.66 2569.5,2402.5C 2563.79,2409.87 2557.46,2416.54 2550.5,2422.5C 2544.45,2415.95 2538.95,2408.95 2534,2401.5C 2509.57,2357.34 2510.91,2314 2538,2271.5C 2574.3,2225.74 2620.46,2211.57 2676.5,2229C 2723.78,2248.79 2749.11,2284.29 2752.5,2335.5 Z"/></g>
<g><path style="opacity:1" fill="#edcea7" d="M 3898.5,2221.5 C 3918.09,2267.09 3930.09,2314.75 3934.5,2364.5C 3935.06,2370.34 3935.72,2376.17 3936.5,2382C 3936.17,2383.17 3935.83,2384.33 3935.5,2385.5C 3912.74,2400.05 3888.07,2409.88 3861.5,2415C 3832.4,2420.58 3806.07,2414.58 3782.5,2397C 3779.57,2394.58 3777.23,2391.74 3775.5,2388.5C 3777.48,2381.4 3779.15,2374.23 3780.5,2367C 3780.32,2365.62 3779.65,2364.79 3778.5,2364.5C 3779.21,2363.6 3780.21,2363.26 3781.5,2363.5C 3782.97,2351.55 3783.97,2339.55 3784.5,2327.5C 3790.85,2326.91 3795.68,2323.91 3799,2318.5C 3810.21,2289.68 3821.71,2261.02 3833.5,2232.5C 3834.12,2232.39 3834.62,2232.06 3835,2231.5C 3844.92,2237.98 3855.76,2240.98 3867.5,2240.5C 3879.84,2237.49 3890.17,2231.16 3898.5,2221.5 Z"/></g>
<g><path style="opacity:1" fill="#757571" d="M 2724.5,2332.5 C 2724.5,2335.83 2724.5,2339.17 2724.5,2342.5C 2685.08,2348.51 2645.75,2355.01 2606.5,2362C 2594.3,2375.7 2581.97,2389.2 2569.5,2402.5C 2565.5,2397.66 2561.67,2392.66 2558,2387.5C 2538.3,2351.49 2540.3,2316.82 2564,2283.5C 2591.81,2251.67 2625.98,2242.17 2666.5,2255C 2700.92,2269.58 2720.25,2295.41 2724.5,2332.5 Z"/></g>
<g><path style="opacity:1" fill="#757571" d="M 2001.5,2254.5 C 2014.35,2253.53 2021.68,2259.36 2023.5,2272C 2020.15,2293.11 2017.32,2314.27 2015,2335.5C 2010.14,2344.47 2002.64,2347.63 1992.5,2345C 1985.39,2341.38 1981.73,2335.55 1981.5,2327.5C 1983.31,2307.41 1985.81,2287.41 1989,2267.5C 1991.38,2261.29 1995.55,2256.96 2001.5,2254.5 Z"/></g>
<g><path style="opacity:1" fill="#494949" d="M 4153.5,2289.5 C 4182.49,2318.33 4211.66,2346.99 4241,2375.5C 4244.5,2379.83 4247.5,2384.49 4250,2389.5C 4250.17,2393.17 4250.33,2396.83 4250.5,2400.5C 4249.16,2415.14 4247.99,2429.81 4247,2444.5C 4246.59,2444.96 4246.09,2445.29 4245.5,2445.5C 4214.07,2433.61 4183.07,2420.94 4152.5,2407.5C 4153.41,2368.18 4153.74,2328.84 4153.5,2289.5 Z"/></g>
<g><path style="opacity:1" fill="#3473AB" d="M 4436.5,2312.5 C 4440.39,2333.95 4443.73,2355.61 4446.5,2377.5C 4440.84,2369.51 4435.17,2361.51 4429.5,2353.5C 4431.37,2339.74 4433.7,2326.07 4436.5,2312.5 Z"/></g>
<g><path style="opacity:1" fill="#3f278c" d="M 3382.5,2361.5 C 3385.13,2365.14 3387.8,2368.81 3390.5,2372.5C 3388.78,2378.94 3386.78,2385.27 3384.5,2391.5C 3383.6,2381.67 3382.93,2371.67 3382.5,2361.5 Z"/></g>
<g><path style="opacity:1" fill="#030202" d="M 951.5,2370.5 C 1239.83,2370.33 1528.17,2370.5 1816.5,2371C 1822.91,2371.48 1829.25,2372.48 1835.5,2374C 1889.62,2389.45 1921.12,2424.95 1930,2480.5C 1930.5,2716.17 1930.67,2951.83 1930.5,3187.5C 1930.5,3200.17 1930.5,3212.83 1930.5,3225.5C 1930.5,3228.5 1930.5,3231.5 1930.5,3234.5C 1930.5,3281.17 1930.5,3327.83 1930.5,3374.5C 1930.5,3463.83 1930.5,3553.17 1930.5,3642.5C 1930.5,3652.17 1930.5,3661.83 1930.5,3671.5C 1912.71,3671.95 1895.05,3673.61 1877.5,3676.5C 1877.67,3298.83 1877.5,2921.17 1877,2543.5C 1868.91,2490.75 1839.74,2455.58 1789.5,2438C 1780.91,2435.95 1772.24,2434.28 1763.5,2433C 1733.17,2432.5 1702.84,2432.33 1672.5,2432.5C 1675.55,2456.9 1666.55,2475.06 1645.5,2487C 1641.23,2488.54 1636.89,2489.87 1632.5,2491C 1445.5,2491.67 1258.5,2491.67 1071.5,2491C 1049.15,2486.49 1036.15,2472.99 1032.5,2450.5C 1032.5,2444.5 1032.5,2438.5 1032.5,2432.5C 999.329,2432.17 966.329,2432.5 933.5,2433.5C 877.968,2440.2 841.468,2470.2 824,2523.5C 821.993,2530.7 820.826,2538.04 820.5,2545.5C 819.167,3098.17 819.167,3650.83 820.5,4203.5C 823.258,4243.53 840.925,4275.03 873.5,4298C 891.411,4309.96 911.077,4316.79 932.5,4318.5C 1162,4319.5 1391.67,4319.83 1621.5,4319.5C 1620.6,4334.49 1620.44,4349.49 1621,4364.5C 1622.17,4369.85 1623.34,4375.18 1624.5,4380.5C 1374.5,4380.67 1124.5,4380.5 874.5,4380C 818.85,4369.68 783.683,4337.18 769,4282.5C 768.201,4276.51 767.535,4270.51 767,4264.5C 766.5,3911.17 766.333,3557.83 766.5,3204.5C 766.333,2964.17 766.5,2723.83 767,2483.5C 767.814,2477.14 768.814,2470.8 770,2464.5C 782.852,2419.15 811.685,2389.48 856.5,2375.5C 863.299,2373.22 870.299,2371.72 877.5,2371C 902.164,2370.5 926.831,2370.33 951.5,2370.5 Z"/></g>
<g><path style="opacity:1" fill="#edcea7" d="M 3390.5,2372.5 C 3391.4,2373.21 3391.74,2374.21 3391.5,2375.5C 3394.24,2376.39 3396.91,2377.55 3399.5,2379C 3409.43,2386.43 3419.76,2393.26 3430.5,2399.5C 3436.16,2403.5 3441.49,2407.83 3446.5,2412.5C 3435.83,2472.68 3434.83,2533.02 3443.5,2593.5C 3402.89,2594.8 3362.56,2598.8 3322.5,2605.5C 3324.01,2594.13 3325.84,2582.79 3328,2571.5C 3342.21,2509.97 3361.04,2449.97 3384.5,2391.5C 3386.78,2385.27 3388.78,2378.94 3390.5,2372.5 Z"/></g>
<g><path style="opacity:1" fill="#72bd52" d="M 2862.5,2397.5 C 2857.03,2442.31 2834.03,2474.48 2793.5,2494C 2744.79,2513.02 2701.12,2505.19 2662.5,2470.5C 2662.35,2469.45 2662.52,2468.45 2663,2467.5C 2668.62,2461.23 2674.45,2455.23 2680.5,2449.5C 2717.45,2481.76 2756.78,2484.93 2798.5,2459C 2821.22,2441.07 2833.55,2417.57 2835.5,2388.5C 2844.49,2387.06 2853.49,2385.72 2862.5,2384.5C 2862.5,2388.83 2862.5,2393.17 2862.5,2397.5 Z"/></g>
<g><path style="opacity:1" fill="#757571" d="M 2835.5,2388.5 C 2833.55,2417.57 2821.22,2441.07 2798.5,2459C 2756.78,2484.93 2717.45,2481.76 2680.5,2449.5C 2692.05,2434.77 2704.55,2420.77 2718,2407.5C 2757.08,2400.69 2796.25,2394.36 2835.5,2388.5 Z"/></g>
<g><path style="opacity:1" fill="#757571" d="M 1992.5,2404.5 C 2003.15,2402.9 2010.65,2406.9 2015,2416.5C 2016.35,2437.42 2018.52,2458.25 2021.5,2479C 2019.09,2491.72 2011.43,2497.06 1998.5,2495C 1990.44,2491.58 1986.27,2485.42 1986,2476.5C 1983.95,2458.53 1982.11,2440.53 1980.5,2422.5C 1980.92,2414.09 1984.92,2408.09 1992.5,2404.5 Z"/></g>
<g><path style="opacity:1" fill="#fdf1ef" d="M 933.5,2433.5 C 966.329,2432.5 999.329,2432.17 1032.5,2432.5C 1032.5,2438.5 1032.5,2444.5 1032.5,2450.5C 1031.51,2445.02 1031.18,2439.36 1031.5,2433.5C 998.833,2433.5 966.167,2433.5 933.5,2433.5 Z"/></g>
<g><path style="opacity:1" fill="#757571" d="M 1877.5,3676.5 C 1793.72,3695.12 1730.89,3741.79 1689,3816.5C 1673.7,3845.73 1664.03,3876.73 1660,3909.5C 1647.35,4045.16 1634.85,4180.83 1622.5,4316.5C 1392.71,4318.5 1162.71,4319.16 932.5,4318.5C 911.077,4316.79 891.411,4309.96 873.5,4298C 840.925,4275.03 823.258,4243.53 820.5,4203.5C 820.5,3745.5 820.5,3287.5 820.5,2829.5C 825.01,2829.12 829.343,2828.45 833.5,2827.5C 900.193,2822.38 966.86,2816.88 1033.5,2811C 1039.5,2810.33 1045.5,2810.33 1051.5,2811C 1079.67,2835.17 1107.83,2859.33 1136,2883.5C 1125.13,2954.85 1114.13,3026.19 1103,3097.5C 1122.9,3026.13 1143.4,2954.96 1164.5,2884C 1135.17,2854.67 1105.83,2825.33 1076.5,2796C 1139.7,2739.79 1203.2,2683.96 1267,2628.5C 1279.43,2686.98 1292.76,2745.32 1307,2803.5C 1310.18,2814.55 1313.51,2825.55 1317,2836.5C 1318.07,2840.32 1319.91,2843.65 1322.5,2846.5C 1323.09,2846.29 1323.59,2845.96 1324,2845.5C 1324.17,2842.67 1324.33,2839.83 1324.5,2837C 1323.53,2822.11 1322.03,2807.28 1320,2792.5C 1311.66,2735.93 1302.16,2679.6 1291.5,2623.5C 1292,2623.17 1292.5,2622.83 1293,2622.5C 1362.31,2643.16 1431.47,2664.33 1500.5,2686C 1608.56,2695.57 1716.56,2705.24 1824.5,2715C 1717.56,2698.91 1610.56,2682.91 1503.5,2667C 1432.72,2639.11 1362.05,2610.94 1291.5,2582.5C 1211.06,2648.1 1131.06,2714.27 1051.5,2781C 977.992,2796.87 904.326,2812.03 830.5,2826.5C 827.252,2826.9 824.085,2827.57 821,2828.5C 820.5,2734.17 820.333,2639.83 820.5,2545.5C 820.826,2538.04 821.993,2530.7 824,2523.5C 841.468,2470.2 877.968,2440.2 933.5,2433.5C 966.167,2433.5 998.833,2433.5 1031.5,2433.5C 1031.18,2439.36 1031.51,2445.02 1032.5,2450.5C 1036.15,2472.99 1049.15,2486.49 1071.5,2491C 1258.5,2491.67 1445.5,2491.67 1632.5,2491C 1636.89,2489.87 1641.23,2488.54 1645.5,2487C 1666.55,2475.06 1675.55,2456.9 1672.5,2432.5C 1702.84,2432.33 1733.17,2432.5 1763.5,2433C 1772.24,2434.28 1780.91,2435.95 1789.5,2438C 1839.74,2455.58 1868.91,2490.75 1877,2543.5C 1877.5,2921.17 1877.67,3298.83 1877.5,3676.5 Z"/></g>
<g><path style="opacity:1" fill="#605f5c" d="M 1170.5,2438.5 C 1296.17,2438.33 1421.83,2438.5 1547.5,2439C 1552.7,2440.57 1555.04,2444.07 1554.5,2449.5C 1554.8,2455.37 1552.14,2459.2 1546.5,2461C 1421.83,2461.67 1297.17,2461.67 1172.5,2461C 1164.5,2457.05 1162.33,2450.88 1166,2442.5C 1167.67,2441.27 1169.17,2439.93 1170.5,2438.5 Z"/></g>
<g><path style="opacity:1" fill="#757571" d="M 2017.5,2552.5 C 2027.64,2550.36 2035.14,2553.7 2040,2562.5C 2046.61,2582.84 2053.11,2603.17 2059.5,2623.5C 2058.69,2634.64 2052.69,2640.31 2041.5,2640.5C 2032.09,2639.26 2026.25,2633.93 2024,2624.5C 2017.15,2606.3 2011.32,2587.8 2006.5,2569C 2007.07,2561.34 2010.74,2555.84 2017.5,2552.5 Z"/></g>
<g><path style="opacity:1" fill="#3473AB" d="M 4463.5,2551.5 C 4480.87,2814.69 4454.03,3073.36 4383,3327.5C 4341.06,3476.03 4281.06,3616.7 4203,3749.5C 4163.67,3814.65 4119.17,3875.99 4069.5,3933.5C 4076.42,3846.29 4081.25,3758.96 4084,3671.5C 4086.51,3583.13 4085.68,3494.8 4081.5,3406.5C 4081.5,3403.5 4081.5,3400.5 4081.5,3397.5C 4153.07,3398.98 4206.57,3368.98 4242,3307.5C 4252.53,3286.37 4258.87,3264.03 4261,3240.5C 4264.72,3113.15 4267.55,2985.82 4269.5,2858.5C 4301.22,2791.7 4328.56,2723.03 4351.5,2652.5C 4366.53,2643.65 4381.2,2634.15 4395.5,2624C 4423.22,2604.45 4445.89,2580.28 4463.5,2551.5 Z"/></g>
<g><path style="opacity:1" fill="#030202" d="M 833.5,2827.5 C 832.209,2827.74 831.209,2827.4 830.5,2826.5C 904.326,2812.03 977.992,2796.87 1051.5,2781C 1131.06,2714.27 1211.06,2648.1 1291.5,2582.5C 1362.05,2610.94 1432.72,2639.11 1503.5,2667C 1610.56,2682.91 1717.56,2698.91 1824.5,2715C 1716.56,2705.24 1608.56,2695.57 1500.5,2686C 1431.47,2664.33 1362.31,2643.16 1293,2622.5C 1292.5,2622.83 1292,2623.17 1291.5,2623.5C 1302.16,2679.6 1311.66,2735.93 1320,2792.5C 1322.03,2807.28 1323.53,2822.11 1324.5,2837C 1324.33,2839.83 1324.17,2842.67 1324,2845.5C 1323.59,2845.96 1323.09,2846.29 1322.5,2846.5C 1319.91,2843.65 1318.07,2840.32 1317,2836.5C 1313.51,2825.55 1310.18,2814.55 1307,2803.5C 1292.76,2745.32 1279.43,2686.98 1267,2628.5C 1203.2,2683.96 1139.7,2739.79 1076.5,2796C 1105.83,2825.33 1135.17,2854.67 1164.5,2884C 1143.4,2954.96 1122.9,3026.13 1103,3097.5C 1114.13,3026.19 1125.13,2954.85 1136,2883.5C 1107.83,2859.33 1079.67,2835.17 1051.5,2811C 1045.5,2810.33 1039.5,2810.33 1033.5,2811C 966.86,2816.88 900.193,2822.38 833.5,2827.5 Z"/></g>
<g><path style="opacity:1" fill="#72bd52" d="M 4351.5,2652.5 C 4328.56,2723.03 4301.22,2791.7 4269.5,2858.5C 4270.12,2803.5 4270.45,2748.5 4270.5,2693.5C 4274.27,2690.77 4278.27,2688.27 4282.5,2686C 4306.07,2675.88 4329.07,2664.71 4351.5,2652.5 Z"/></g>
<g><path style="opacity:1" fill="#757571" d="M 2077.5,2689.5 C 2085.07,2688.97 2091.24,2691.63 2096,2697.5C 2106.27,2715.43 2116.94,2733.1 2128,2750.5C 2129.78,2767.39 2122.28,2774.89 2105.5,2773C 2102.73,2771.53 2100.23,2769.7 2098,2767.5C 2086.58,2750.33 2075.91,2732.66 2066,2714.5C 2062.34,2702.5 2066.17,2694.17 2077.5,2689.5 Z"/></g>
<g><path style="opacity:1" fill="#494949" d="M 4270.5,2693.5 C 4270.45,2748.5 4270.12,2803.5 4269.5,2858.5C 4267.55,2985.82 4264.72,3113.15 4261,3240.5C 4258.87,3264.03 4252.53,3286.37 4242,3307.5C 4206.57,3368.98 4153.07,3398.98 4081.5,3397.5C 4081.5,3400.5 4081.5,3403.5 4081.5,3406.5C 4079.21,3361.54 4075.54,3316.54 4070.5,3271.5C 4105.5,3272.33 4140.5,3272.5 4175.5,3272C 4178.03,3269.41 4178.03,3266.75 4175.5,3264C 4142.83,3263.09 4110.17,3262.26 4077.5,3261.5C 4074.64,3261.5 4071.98,3261.84 4069.5,3262.5C 4067.65,3244.39 4064.99,3226.39 4061.5,3208.5C 4061.83,3207.83 4062.17,3207.17 4062.5,3206.5C 4107.67,3189.49 4136.17,3157.49 4148,3110.5C 4148.83,3105.86 4149.5,3101.19 4150,3096.5C 4150.75,2975.5 4151.25,2854.5 4151.5,2733.5C 4192.92,2725.8 4232.59,2712.47 4270.5,2693.5 Z"/></g>
<g><path style="opacity:1" fill="#adc1e6" d="M 4151.5,2733.5 C 4151.25,2854.5 4150.75,2975.5 4150,3096.5C 4149.5,3101.19 4148.83,3105.86 4148,3110.5C 4136.17,3157.49 4107.67,3189.49 4062.5,3206.5C 4063.83,3046.49 4088.33,2890.16 4136,2737.5C 4136.5,2736.33 4137.33,2735.5 4138.5,2735C 4142.85,2734.54 4147.18,2734.04 4151.5,2733.5 Z"/></g>
<g><path style="opacity:1" fill="#757571" d="M 3280.5,2756.5 C 3299.77,2755.41 3306.93,2764.08 3302,2782.5C 3290.26,2800.14 3277.42,2816.98 3263.5,2833C 3251.86,2838.59 3243.03,2835.75 3237,2824.5C 3235.73,2818.41 3236.73,2812.74 3240,2807.5C 3251.77,2793.06 3262.77,2778.06 3273,2762.5C 3275.48,2760.36 3277.98,2758.36 3280.5,2756.5 Z"/></g>
<g><path style="opacity:1" fill="#555555" d="M 820.5,2545.5 C 820.333,2639.83 820.5,2734.17 821,2828.5C 824.085,2827.57 827.252,2826.9 830.5,2826.5C 831.209,2827.4 832.209,2827.74 833.5,2827.5C 829.343,2828.45 825.01,2829.12 820.5,2829.5C 820.5,3287.5 820.5,3745.5 820.5,4203.5C 819.167,3650.83 819.167,3098.17 820.5,2545.5 Z"/></g>
<g><path style="opacity:1" fill="#757571" d="M 3187.5,2868.5 C 3200.34,2867.52 3207.68,2873.35 3209.5,2886C 3209.13,2889.76 3207.97,2893.26 3206,2896.5C 3191.09,2910.75 3175.59,2924.25 3159.5,2937C 3148.76,2943.26 3140.26,2941.09 3134,2930.5C 3131.49,2923.76 3132.16,2917.42 3136,2911.5C 3152.09,2898.75 3167.59,2885.25 3182.5,2871C 3184.31,2870.24 3185.98,2869.41 3187.5,2868.5 Z"/></g>
<g><path style="opacity:1" fill="#757571" d="M 3069.5,2957.5 C 3085.19,2957.35 3092.35,2965.02 3091,2980.5C 3089.6,2983.9 3087.43,2986.74 3084.5,2989C 3067.14,2999.68 3049.14,3009.35 3030.5,3018C 3014.19,3020.03 3006.69,3012.86 3008,2996.5C 3009.12,2993.75 3010.62,2991.25 3012.5,2989C 3031.88,2978.98 3050.88,2968.48 3069.5,2957.5 Z"/></g>
<g><path style="opacity:1" fill="#757571" d="M 2936.5,3018.5 C 2952.49,3018.97 2958.99,3026.97 2956,3042.5C 2954.6,3045.9 2952.43,3048.74 2949.5,3051C 2930.78,3057.68 2911.78,3063.34 2892.5,3068C 2875.71,3070.54 2867.88,3063.38 2869,3046.5C 2870.79,3041.08 2874.29,3037.25 2879.5,3035C 2898.93,3030.56 2917.93,3025.06 2936.5,3018.5 Z"/></g>
<g><path style="opacity:1" fill="#757571" d="M 2550.5,3025.5 C 2564.66,3026.07 2578.66,3027.9 2592.5,3031C 2602.83,3039 2604.17,3048.34 2596.5,3059C 2592.4,3062.2 2587.73,3063.7 2582.5,3063.5C 2570.5,3062.93 2558.83,3060.77 2547.5,3057C 2538.38,3049.29 2537.22,3040.45 2544,3030.5C 2546.33,3028.93 2548.49,3027.27 2550.5,3025.5 Z"/></g>
<g><path style="opacity:1" fill="#757571" d="M 2720.5,3031.5 C 2725.84,3031.33 2731.18,3031.5 2736.5,3032C 2746.38,3035.25 2750.55,3042.08 2749,3052.5C 2747.59,3057.84 2744.42,3061.67 2739.5,3064C 2733.33,3065.93 2726.99,3066.93 2720.5,3067C 2703.51,3068.27 2686.51,3068.6 2669.5,3068C 2657.52,3060.78 2655.36,3051.28 2663,3039.5C 2664.58,3037.96 2666.41,3036.79 2668.5,3036C 2685.96,3034.56 2703.3,3033.06 2720.5,3031.5 Z"/></g>
<g><path style="opacity:1" fill="#494949" d="M 1930.5,3187.5 C 2523.5,3194.82 3116.5,3202.15 3709.5,3209.5C 3712.08,3216.41 3716.75,3221.41 3723.5,3224.5C 3722.84,3225.96 3722.51,3227.63 3722.5,3229.5C 3723.21,3238.17 3723.88,3246.84 3724.5,3255.5C 3126.5,3245.44 2528.5,3235.44 1930.5,3225.5C 1930.5,3212.83 1930.5,3200.17 1930.5,3187.5 Z"/></g>
<g><path style="opacity:1" fill="#030202" d="M 4061.5,3208.5 C 4064.99,3226.39 4067.65,3244.39 4069.5,3262.5C 4069.51,3265.54 4069.84,3268.54 4070.5,3271.5C 4075.54,3316.54 4079.21,3361.54 4081.5,3406.5C 4085.68,3494.8 4086.51,3583.13 4084,3671.5C 4081.25,3758.96 4076.42,3846.29 4069.5,3933.5C 4059.25,4056.83 4043.75,4179.49 4023,4301.5C 4020.3,4316.01 4016.97,4330.34 4013,4344.5C 4006.91,4351.6 3999.08,4354.93 3989.5,4354.5C 3979.49,4354.67 3969.49,4354.5 3959.5,4354C 3955.7,4353.59 3952.04,4352.76 3948.5,4351.5C 3941.35,4349.86 3936.52,4345.53 3934,4338.5C 3932.28,4249.16 3930.78,4159.83 3929.5,4070.5C 3927.61,3934.63 3921.45,3798.96 3911,3663.5C 3908.06,3631.46 3904.73,3599.46 3901,3567.5C 3881.74,3769.82 3847.58,3969.49 3798.5,4166.5C 3784.23,4225.58 3768.4,4284.25 3751,4342.5C 3747.62,4347.78 3742.78,4350.95 3736.5,4352C 3725.42,4352.24 3714.42,4351.41 3703.5,4349.5C 3689.72,4347.39 3676.39,4343.72 3663.5,4338.5C 3658.47,4335.94 3656.13,4331.77 3656.5,4326C 3658.36,4317.87 3660.03,4309.7 3661.5,4301.5C 3679.88,4209.4 3693.04,4116.4 3701,4022.5C 3704.42,3981.18 3707.58,3939.85 3710.5,3898.5C 3711.72,3876.49 3713.05,3854.49 3714.5,3832.5C 3719.85,3732.24 3723.19,3631.9 3724.5,3531.5C 3725.84,3487.34 3726.51,3443.01 3726.5,3398.5C 3726.67,3357.83 3726.5,3317.17 3726,3276.5C 3725.83,3271.32 3725.33,3266.32 3724.5,3261.5C 3724.5,3259.5 3724.5,3257.5 3724.5,3255.5C 3723.88,3246.84 3723.21,3238.17 3722.5,3229.5C 3722.51,3227.63 3722.84,3225.96 3723.5,3224.5C 3760.04,3229.21 3796.7,3232.71 3833.5,3235C 3878.86,3238.48 3924.19,3238.14 3969.5,3234C 3998.65,3231.24 4026.99,3224.9 4054.5,3215C 4057.33,3213.33 4059.66,3211.17 4061.5,3208.5 Z"/></g>
<g><path style="opacity:1" fill="#6f767d" d="M 1930.5,3225.5 C 2528.5,3235.44 3126.5,3245.44 3724.5,3255.5C 3724.5,3257.5 3724.5,3259.5 3724.5,3261.5C 3724.5,3262.83 3724.5,3264.17 3724.5,3265.5C 3126.5,3255.4 2528.5,3245.07 1930.5,3234.5C 1930.5,3231.5 1930.5,3228.5 1930.5,3225.5 Z"/></g>
<g><path style="opacity:1" fill="#494949" d="M 1930.5,3234.5 C 2528.5,3245.07 3126.5,3255.4 3724.5,3265.5C 3724.5,3264.17 3724.5,3262.83 3724.5,3261.5C 3725.33,3266.32 3725.83,3271.32 3726,3276.5C 3726.5,3317.17 3726.67,3357.83 3726.5,3398.5C 3697.17,3398.5 3667.83,3398.5 3638.5,3398.5C 3515.85,3397.2 3393.18,3395.86 3270.5,3394.5C 3263.5,3394.5 3256.5,3394.5 3249.5,3394.5C 3144.17,3393.2 3038.83,3391.87 2933.5,3390.5C 2739.49,3387.92 2545.49,3384.92 2351.5,3381.5C 2345.59,3381.55 2339.92,3382.21 2334.5,3383.5C 2325.89,3381.69 2316.89,3380.86 2307.5,3381C 2181.83,3378.9 2056.16,3376.73 1930.5,3374.5C 1930.5,3327.83 1930.5,3281.17 1930.5,3234.5 Z"/></g>
<g><path style="opacity:1" fill="#030202" d="M 1348.5,3242.5 C 1395.14,3315.99 1441.64,3389.66 1488,3463.5C 1488.72,3464.06 1489.56,3464.39 1490.5,3464.5C 1565.49,3452.67 1640.49,3440.84 1715.5,3429C 1743.29,3393.54 1771.45,3358.38 1800,3323.5C 1800.17,3323.83 1800.33,3324.17 1800.5,3324.5C 1772.29,3364.42 1743.96,3404.25 1715.5,3444C 1633.43,3459.38 1551.43,3475.21 1469.5,3491.5C 1428.91,3544.59 1388.91,3598.09 1349.5,3652C 1425.33,3726.49 1501.83,3800.33 1579,3873.5C 1596.66,3944.13 1613.99,4014.8 1631,4085.5C 1604.04,4018.47 1576.21,3951.8 1547.5,3885.5C 1546.64,3884.42 1545.64,3884.25 1544.5,3885C 1512.98,3904.25 1481.31,3922.91 1449.5,3941C 1474.02,3913.31 1498.35,3885.48 1522.5,3857.5C 1473.37,3809.54 1424.37,3761.37 1375.5,3713C 1354.17,3693 1332.83,3673 1311.5,3653C 1310.17,3652.33 1308.83,3652.33 1307.5,3653C 1298.34,3657.75 1289.34,3662.75 1280.5,3668C 1231.51,3700.17 1182.17,3731.83 1132.5,3763C 1126.32,3766.59 1119.99,3769.92 1113.5,3773C 1109.99,3774.56 1106.32,3775.4 1102.5,3775.5C 1102.64,3771.56 1104.14,3768.23 1107,3765.5C 1119.57,3752.93 1132.74,3741.09 1146.5,3730C 1194.32,3692.51 1242.99,3656.18 1292.5,3621C 1346.36,3568.8 1400.53,3516.97 1455,3465.5C 1455.67,3464.5 1455.67,3463.5 1455,3462.5C 1419.41,3389.22 1383.91,3315.89 1348.5,3242.5 Z"/></g>
<g><path style="opacity:1" fill="#6f767d" d="M 4070.5,3271.5 C 4069.84,3268.54 4069.51,3265.54 4069.5,3262.5C 4071.98,3261.84 4074.64,3261.5 4077.5,3261.5C 4110.17,3262.26 4142.83,3263.09 4175.5,3264C 4178.03,3266.75 4178.03,3269.41 4175.5,3272C 4140.5,3272.5 4105.5,3272.33 4070.5,3271.5 Z"/></g>
<g><path style="opacity:1" fill="#3473AB" d="M 1930.5,3374.5 C 2056.16,3376.73 2181.83,3378.9 2307.5,3381C 2316.89,3380.86 2325.89,3381.69 2334.5,3383.5C 2325.54,3461.8 2316.87,3540.14 2308.5,3618.5C 2200.5,3618.33 2092.5,3618.5 1984.5,3619C 1964.15,3621.68 1946.15,3629.51 1930.5,3642.5C 1930.5,3553.17 1930.5,3463.83 1930.5,3374.5 Z"/></g>
<g><path style="opacity:1" fill="#030202" d="M 2933.5,3390.5 C 2946.67,3465.37 2959.34,3540.37 2971.5,3615.5C 2971.5,3616.5 2971.5,3617.5 2971.5,3618.5C 2750.5,3618.5 2529.5,3618.5 2308.5,3618.5C 2316.87,3540.14 2325.54,3461.8 2334.5,3383.5C 2339.92,3382.21 2345.59,3381.55 2351.5,3381.5C 2545.49,3384.92 2739.49,3387.92 2933.5,3390.5 Z"/></g>
<g><path style="opacity:1" fill="#72bd52" d="M 2933.5,3390.5 C 3038.83,3391.87 3144.17,3393.2 3249.5,3394.5C 3212.38,3471.09 3171.38,3545.42 3126.5,3617.5C 3075.17,3617.5 3023.83,3617.5 2972.5,3617.5C 2972.67,3616.51 2972.34,3615.84 2971.5,3615.5C 2959.34,3540.37 2946.67,3465.37 2933.5,3390.5 Z"/></g>
<g><path style="opacity:1" fill="#2b6114" d="M 3249.5,3394.5 C 3256.5,3394.5 3263.5,3394.5 3270.5,3394.5C 3255.05,3428.07 3238.55,3461.07 3221,3493.5C 3198.25,3535.34 3174.75,3576.68 3150.5,3617.5C 3142.5,3617.5 3134.5,3617.5 3126.5,3617.5C 3171.38,3545.42 3212.38,3471.09 3249.5,3394.5 Z"/></g>
<g><path style="opacity:1" fill="#72bd52" d="M 3270.5,3394.5 C 3393.18,3395.86 3515.85,3397.2 3638.5,3398.5C 3578.2,3475.4 3512.87,3548.23 3442.5,3617C 3345.17,3617.5 3247.83,3617.67 3150.5,3617.5C 3174.75,3576.68 3198.25,3535.34 3221,3493.5C 3238.55,3461.07 3255.05,3428.07 3270.5,3394.5 Z"/></g>
<g><path style="opacity:1" fill="#72bd52" d="M 3638.5,3398.5 C 3667.83,3398.5 3697.17,3398.5 3726.5,3398.5C 3726.51,3443.01 3725.84,3487.34 3724.5,3531.5C 3724.82,3527.77 3724.49,3524.11 3723.5,3520.5C 3666.89,3559.97 3608.56,3596.63 3548.5,3630.5C 3539.79,3624.43 3530.12,3620.59 3519.5,3619C 3337,3618.83 3154.67,3618.33 2972.5,3617.5C 3023.83,3617.5 3075.17,3617.5 3126.5,3617.5C 3134.5,3617.5 3142.5,3617.5 3150.5,3617.5C 3247.83,3617.67 3345.17,3617.5 3442.5,3617C 3512.87,3548.23 3578.2,3475.4 3638.5,3398.5 Z"/></g>
<g><path style="opacity:1" fill="#3473AB" d="M 3724.5,3531.5 C 3723.19,3631.9 3719.85,3732.24 3714.5,3832.5C 3663.86,3769.69 3613.36,3706.69 3563,3643.5C 3558.59,3638.59 3553.76,3634.26 3548.5,3630.5C 3608.56,3596.63 3666.89,3559.97 3723.5,3520.5C 3724.49,3524.11 3724.82,3527.77 3724.5,3531.5 Z"/></g>
<g><path style="opacity:1" fill="#3473AB" d="M 3929.5,4070.5 C 3886.94,4104.07 3843.27,4136.07 3798.5,4166.5C 3847.58,3969.49 3881.74,3769.82 3901,3567.5C 3904.73,3599.46 3908.06,3631.46 3911,3663.5C 3921.45,3798.96 3927.61,3934.63 3929.5,4070.5 Z"/></g>
<g><path style="opacity:1" fill="#605f5c" d="M 2971.5,3615.5 C 2972.34,3615.84 2972.67,3616.51 2972.5,3617.5C 3154.67,3618.33 3337,3618.83 3519.5,3619C 3530.12,3620.59 3539.79,3624.43 3548.5,3630.5C 3553.76,3634.26 3558.59,3638.59 3563,3643.5C 3613.36,3706.69 3663.86,3769.69 3714.5,3832.5C 3713.05,3854.49 3711.72,3876.49 3710.5,3898.5C 3616.16,3898.19 3521.82,3898.52 3427.5,3899.5C 3489.96,3882.72 3552.63,3866.22 3615.5,3850C 3529.75,3866.12 3444.09,3882.95 3358.5,3900.5C 3341.18,3899.17 3323.51,3898.5 3305.5,3898.5C 3287.83,3898.67 3270.17,3898.83 3252.5,3899C 3251.58,3899.28 3250.92,3899.78 3250.5,3900.5C 3222.65,3893 3194.65,3886 3166.5,3879.5C 3175,3825.51 3183.16,3771.51 3191,3717.5C 3170.17,3772.67 3149.33,3827.84 3128.5,3883C 3128.75,3884.33 3129.42,3885.33 3130.5,3886C 3143.29,3890.19 3155.95,3894.35 3168.5,3898.5C 3071.17,3898.5 2973.83,3898.5 2876.5,3898.5C 2876.5,3899.83 2876.5,3901.17 2876.5,3902.5C 2868.36,3830.71 2837.36,3770.88 2783.5,3723C 2716,3668.96 2639.34,3648.96 2553.5,3663C 2484.51,3675.47 2429.84,3710.14 2389.5,3767C 2306.19,3769.71 2222.86,3771.37 2139.5,3772C 2095.53,3715 2037.53,3682.33 1965.5,3674C 1953.68,3673.1 1942.02,3672.27 1930.5,3671.5C 1930.5,3661.83 1930.5,3652.17 1930.5,3642.5C 1946.15,3629.51 1964.15,3621.68 1984.5,3619C 2092.5,3618.5 2200.5,3618.33 2308.5,3618.5C 2529.5,3618.5 2750.5,3618.5 2971.5,3618.5C 2971.5,3617.5 2971.5,3616.5 2971.5,3615.5 Z"/></g>
<g><path style="opacity:1" fill="#494949" d="M 2876.5,3902.5 C 2885.39,3968.49 2894.06,4034.49 2902.5,4100.5C 2904.08,4108.42 2905.08,4116.42 2905.5,4124.5C 2908.06,4124.2 2910.39,4124.53 2912.5,4125.5C 2910.5,4125.5 2908.5,4125.5 2906.5,4125.5C 2913.96,4184 2921.63,4242.34 2929.5,4300.5C 2938.21,4350.22 2922.21,4389.72 2881.5,4419C 2856.89,4431.87 2831.56,4443.21 2805.5,4453C 2768,4462.87 2734.34,4455.54 2704.5,4431C 2663.33,4387 2621.99,4343.16 2580.5,4299.5C 2544.7,4261.2 2508.7,4223.04 2472.5,4185C 2339.16,4187 2205.83,4189.67 2072.5,4193C 2041.94,4228.62 2011.28,4264.12 1980.5,4299.5C 1955.07,4329.35 1929.4,4359.02 1903.5,4388.5C 1887.84,4406.33 1872.34,4424.33 1857,4442.5C 1822.15,4476.34 1781.65,4485.18 1735.5,4469C 1718.25,4461.8 1700.91,4454.8 1683.5,4448C 1654.38,4433.71 1634.71,4411.21 1624.5,4380.5C 1623.34,4375.18 1622.17,4369.85 1621,4364.5C 1620.44,4349.49 1620.6,4334.49 1621.5,4319.5C 1622.4,4318.79 1622.74,4317.79 1622.5,4316.5C 1634.85,4180.83 1647.35,4045.16 1660,3909.5C 1664.03,3876.73 1673.7,3845.73 1689,3816.5C 1730.89,3741.79 1793.72,3695.12 1877.5,3676.5C 1895.05,3673.61 1912.71,3671.95 1930.5,3671.5C 1942.02,3672.27 1953.68,3673.1 1965.5,3674C 2037.53,3682.33 2095.53,3715 2139.5,3772C 2222.86,3771.37 2306.19,3769.71 2389.5,3767C 2429.84,3710.14 2484.51,3675.47 2553.5,3663C 2639.34,3648.96 2716,3668.96 2783.5,3723C 2837.36,3770.88 2868.36,3830.71 2876.5,3902.5 Z"/></g>
<g><path style="opacity:1" fill="#0f0f0f" d="M 3250.5,3900.5 C 3266.05,3904.77 3281.72,3908.77 3297.5,3912.5C 3317.91,3908.75 3338.24,3904.75 3358.5,3900.5C 3444.09,3882.95 3529.75,3866.12 3615.5,3850C 3552.63,3866.22 3489.96,3882.72 3427.5,3899.5C 3384.83,3910.6 3342.16,3921.77 3299.5,3933C 3194.17,3998 3088.83,4063 2983.5,4128C 2959.85,4127.29 2936.18,4126.46 2912.5,4125.5C 2910.39,4124.53 2908.06,4124.2 2905.5,4124.5C 2905.08,4116.42 2904.08,4108.42 2902.5,4100.5C 2927.51,4100.83 2952.51,4100.5 2977.5,4099.5C 2957.37,4063.58 2938.54,4026.92 2921,3989.5C 2914.88,3976.63 2910.04,3963.3 2906.5,3949.5C 2906.57,3948.23 2906.9,3947.06 2907.5,3946C 2909.79,3945.58 2911.79,3946.25 2913.5,3948C 2923.5,3958.52 2932.67,3969.69 2941,3981.5C 2965.17,4017.16 2988.33,4053.49 3010.5,4090.5C 3094.1,4036.89 3177.44,3982.89 3260.5,3928.5C 3229.9,3918.3 3199.24,3908.3 3168.5,3898.5C 3155.95,3894.35 3143.29,3890.19 3130.5,3886C 3129.42,3885.33 3128.75,3884.33 3128.5,3883C 3149.33,3827.84 3170.17,3772.67 3191,3717.5C 3183.16,3771.51 3175,3825.51 3166.5,3879.5C 3194.65,3886 3222.65,3893 3250.5,3900.5 Z"/></g>
<g><path style="opacity:1" fill="#6f767d" d="M 2597.5,3752.5 C 2674.03,3748.31 2732.2,3778.65 2772,3843.5C 2793.71,3884.31 2799.38,3927.31 2789,3972.5C 2770.04,4038.8 2727.54,4081.96 2661.5,4102C 2576.87,4119.08 2510.7,4091.92 2463,4020.5C 2433.56,3966.41 2430.89,3911.07 2455,3854.5C 2485.01,3796.08 2532.51,3762.08 2597.5,3752.5 Z"/></g>
<g><path style="opacity:1" fill="#6f767d" d="M 1914.5,3766.5 C 1989.79,3762.56 2047.29,3792.22 2087,3855.5C 2110.75,3899.28 2116.09,3945.28 2103,3993.5C 2083.69,4053.48 2044.19,4093.65 1984.5,4114C 1911.03,4133.06 1848.53,4114.89 1797,4059.5C 1753.72,4004.46 1743.72,3943.8 1767,3877.5C 1788.75,3826.41 1825.92,3791.91 1878.5,3774C 1890.53,3770.9 1902.53,3768.4 1914.5,3766.5 Z"/></g>
<g><path style="opacity:1" fill="#7d1d1d" d="M 2606.5,3796.5 C 2632.34,3794.33 2648.84,3805.66 2656,3830.5C 2657.94,3855.13 2647.11,3870.96 2623.5,3878C 2599.51,3881 2583.34,3871.17 2575,3848.5C 2570.94,3822.27 2581.44,3804.94 2606.5,3796.5 Z"/></g>
<g><path style="opacity:1" fill="#030202" d="M 1906.5,3829.5 C 1915.84,3829.33 1925.17,3829.5 1934.5,3830C 1940.91,3832.75 1944.74,3837.58 1946,3844.5C 1949,3871.2 1952.17,3897.86 1955.5,3924.5C 1977.16,3923.53 1998.83,3923.37 2020.5,3924C 2023.09,3925.34 2024.59,3927.51 2025,3930.5C 2025.67,3939.83 2025.67,3949.17 2025,3958.5C 2024.27,3962.9 2021.77,3965.73 2017.5,3967C 1998.84,3967.5 1980.17,3967.67 1961.5,3967.5C 1964.66,3993.47 1967.66,4019.47 1970.5,4045.5C 1969.94,4054.24 1965.61,4060.41 1957.5,4064C 1945.5,4064.67 1933.5,4064.67 1921.5,4064C 1913.02,4058.54 1909.19,4050.71 1910,4040.5C 1908.09,4016.84 1906.26,3993.17 1904.5,3969.5C 1876.84,3970.31 1849.17,3970.48 1821.5,3970C 1815.37,3967.53 1810.87,3963.37 1808,3957.5C 1807.33,3950.17 1807.33,3942.83 1808,3935.5C 1809.94,3932.27 1812.78,3930.1 1816.5,3929C 1818.88,3928.49 1821.21,3927.82 1823.5,3927C 1849.17,3926.64 1874.84,3926.14 1900.5,3925.5C 1898.2,3897.51 1896.37,3869.51 1895,3841.5C 1896.38,3834.95 1900.22,3830.95 1906.5,3829.5 Z"/></g>
<g><path style="opacity:1" fill="#030202" d="M 2299.5,3864.5 C 2316.17,3864.33 2332.84,3864.5 2349.5,3865C 2354.22,3867.44 2355.72,3871.27 2354,3876.5C 2352.52,3879.66 2350.02,3881.5 2346.5,3882C 2327.5,3882.67 2308.5,3882.67 2289.5,3882C 2285.21,3878.23 2284.38,3873.73 2287,3868.5C 2287.9,3867.3 2289.07,3866.47 2290.5,3866C 2293.69,3865.82 2296.69,3865.32 2299.5,3864.5 Z"/></g>
<g><path style="opacity:1" fill="#030202" d="M 2201.5,3866.5 C 2209.84,3866.33 2218.17,3866.5 2226.5,3867C 2232.09,3869.35 2233.93,3873.52 2232,3879.5C 2230.89,3881.81 2229.06,3883.31 2226.5,3884C 2207.17,3885.04 2187.84,3885.38 2168.5,3885C 2163.85,3882.1 2162.35,3877.94 2164,3872.5C 2164.93,3870.45 2166.43,3868.95 2168.5,3868C 2179.67,3867.83 2190.67,3867.33 2201.5,3866.5 Z"/></g>
<g><path style="opacity:1" fill="#7d1d1d" d="M 2696.5,3883.5 C 2722.71,3880.9 2739.21,3892.23 2746,3917.5C 2747.52,3942.29 2736.36,3958.12 2712.5,3965C 2692.68,3967.17 2677.85,3959.67 2668,3942.5C 2659.46,3921.57 2663.96,3904.07 2681.5,3890C 2686.38,3887.22 2691.38,3885.05 2696.5,3883.5 Z"/></g>
<g><path style="opacity:1" fill="#7d1d1d" d="M 2520.5,3886.5 C 2545.46,3884.72 2561.62,3895.72 2569,3919.5C 2571.67,3944.36 2561.17,3960.52 2537.5,3968C 2511.69,3971.17 2495.19,3960.34 2488,3935.5C 2485.53,3910.17 2496.36,3893.84 2520.5,3886.5 Z"/></g>
<g><path style="opacity:1" fill="#6f767d" d="M 3168.5,3898.5 C 3199.24,3908.3 3229.9,3918.3 3260.5,3928.5C 3177.44,3982.89 3094.1,4036.89 3010.5,4090.5C 2988.33,4053.49 2965.17,4017.16 2941,3981.5C 2932.67,3969.69 2923.5,3958.52 2913.5,3948C 2911.79,3946.25 2909.79,3945.58 2907.5,3946C 2906.9,3947.06 2906.57,3948.23 2906.5,3949.5C 2910.04,3963.3 2914.88,3976.63 2921,3989.5C 2938.54,4026.92 2957.37,4063.58 2977.5,4099.5C 2952.51,4100.5 2927.51,4100.83 2902.5,4100.5C 2894.06,4034.49 2885.39,3968.49 2876.5,3902.5C 2876.5,3901.17 2876.5,3899.83 2876.5,3898.5C 2973.83,3898.5 3071.17,3898.5 3168.5,3898.5 Z"/></g>
<g><path style="opacity:1" fill="#000000" d="M 3358.5,3900.5 C 3338.24,3904.75 3317.91,3908.75 3297.5,3912.5C 3281.72,3908.77 3266.05,3904.77 3250.5,3900.5C 3250.92,3899.78 3251.58,3899.28 3252.5,3899C 3270.17,3898.83 3287.83,3898.67 3305.5,3898.5C 3323.51,3898.5 3341.18,3899.17 3358.5,3900.5 Z"/></g>
<g><path style="opacity:1" fill="#6f767d" d="M 3710.5,3898.5 C 3707.58,3939.85 3704.42,3981.18 3701,4022.5C 3693.04,4116.4 3679.88,4209.4 3661.5,4301.5C 3631.52,4299.51 3601.19,4298.84 3570.5,4299.5C 3356.67,4299.17 3143,4299.5 2929.5,4300.5C 2921.63,4242.34 2913.96,4184 2906.5,4125.5C 2908.5,4125.5 2910.5,4125.5 2912.5,4125.5C 2936.18,4126.46 2959.85,4127.29 2983.5,4128C 3088.83,4063 3194.17,3998 3299.5,3933C 3342.16,3921.77 3384.83,3910.6 3427.5,3899.5C 3521.82,3898.52 3616.16,3898.19 3710.5,3898.5 Z"/></g>
<g><path style="opacity:1" fill="#7d1d1d" d="M 2608.5,3973.5 C 2633.54,3970.76 2650.37,3981.09 2659,4004.5C 2662.36,4030.64 2651.53,4047.47 2626.5,4055C 2607.83,4057.58 2593.33,4051.08 2583,4035.5C 2573.05,4015.3 2576.21,3997.47 2592.5,3982C 2597.48,3978.34 2602.82,3975.51 2608.5,3973.5 Z"/></g>
<g><path style="opacity:1" fill="#6f767d" d="M 2580.5,4299.5 C 2380.5,4299.5 2180.5,4299.5 1980.5,4299.5C 2011.28,4264.12 2041.94,4228.62 2072.5,4193C 2205.83,4189.67 2339.16,4187 2472.5,4185C 2508.7,4223.04 2544.7,4261.2 2580.5,4299.5 Z"/></g>
<g><path style="opacity:1" fill="#3473AB" d="M 1980.5,4299.5 C 2180.5,4299.5 2380.5,4299.5 2580.5,4299.5C 2621.99,4343.16 2663.33,4387 2704.5,4431C 2734.34,4455.54 2768,4462.87 2805.5,4453C 2831.56,4443.21 2856.89,4431.87 2881.5,4419C 2922.21,4389.72 2938.21,4350.22 2929.5,4300.5C 3143,4299.5 3356.67,4299.17 3570.5,4299.5C 3457.1,4355.25 3339.1,4399.08 3216.5,4431C 2990.36,4488.44 2760.7,4510.78 2527.5,4498C 2428.8,4493.05 2330.8,4482.05 2233.5,4465C 2141.44,4448.06 2050.1,4428.06 1959.5,4405C 1940.6,4400.11 1921.93,4394.61 1903.5,4388.5C 1929.4,4359.02 1955.07,4329.35 1980.5,4299.5 Z"/></g>
<g><path style="opacity:1" fill="#2e7f8f" d="M 1622.5,4316.5 C 1622.74,4317.79 1622.4,4318.79 1621.5,4319.5C 1391.67,4319.83 1162,4319.5 932.5,4318.5C 1162.71,4319.16 1392.71,4318.5 1622.5,4316.5 Z"/></g>
<g><path style="opacity:1" fill="#edcea7" d="M 3663.5,4338.5 C 3676.39,4343.72 3689.72,4347.39 3703.5,4349.5C 3703.5,4364.5 3703.5,4379.5 3703.5,4394.5C 3685.36,4399.92 3668.2,4397.59 3652,4387.5C 3652,4383.8 3652.5,4380.14 3653.5,4376.5C 3656.64,4363.76 3659.97,4351.09 3663.5,4338.5 Z"/></g>
<g><path style="opacity:1" fill="#edcea7" d="M 3948.5,4351.5 C 3952.04,4352.76 3955.7,4353.59 3959.5,4354C 3969.49,4354.5 3979.49,4354.67 3989.5,4354.5C 3988.29,4355.88 3988.63,4357.05 3990.5,4358C 3989.17,4372.26 3989.17,4386.43 3990.5,4400.5C 3988.07,4401.96 3985.4,4403.12 3982.5,4404C 3969.69,4406.34 3957.03,4405.84 3944.5,4402.5C 3945.43,4397.33 3945.43,4392.33 3944.5,4387.5C 3945.09,4386.23 3945.59,4384.9 3946,4383.5C 3946.61,4372.81 3947.45,4362.14 3948.5,4351.5 Z"/></g>
<g><path style="opacity:1" fill="#030202" d="M 3653.5,4376.5 C 3652.5,4380.14 3652,4383.8 3652,4387.5C 3668.2,4397.59 3685.36,4399.92 3703.5,4394.5C 3709.71,4393.65 3715.71,4391.99 3721.5,4389.5C 3722.67,4384.5 3723.83,4379.5 3725,4374.5C 3730.78,4406.61 3734.11,4438.94 3735,4471.5C 3729.04,4490.77 3715.87,4499.93 3695.5,4499C 3608.22,4503.51 3520.89,4505.51 3433.5,4505C 3423.87,4499.96 3422.03,4492.8 3428,4483.5C 3430.54,4480.63 3433.37,4478.13 3436.5,4476C 3508.78,4442.74 3581.11,4409.57 3653.5,4376.5 Z"/></g>
<g><path style="opacity:1" fill="#030202" d="M 3944.5,4387.5 C 3945.43,4392.33 3945.43,4397.33 3944.5,4402.5C 3957.03,4405.84 3969.69,4406.34 3982.5,4404C 3985.4,4403.12 3988.07,4401.96 3990.5,4400.5C 3992.17,4400.25 3993.67,4399.58 3995,4398.5C 3995.47,4393.63 3996.64,4388.96 3998.5,4384.5C 4003.04,4391.25 4006.54,4398.59 4009,4406.5C 4016.74,4429.78 4023.07,4453.44 4028,4477.5C 4030.41,4492.21 4024.57,4501.71 4010.5,4506C 3979.58,4509.49 3948.58,4510.83 3917.5,4510C 3906.27,4505.11 3901.44,4496.61 3903,4484.5C 3907.24,4447.91 3921.07,4415.57 3944.5,4387.5 Z"/></g>
</svg>
